<svg width="51" height="65" viewBox="0 0 51 65" fill="none" xmlns="http://www.w3.org/2000/svg">
<path d="M20.4798 30.8867L23.4782 28.1367C23.6192 28.0076 23.7916 27.9113 23.9813 27.8556C24.171 27.7999 24.3724 27.7865 24.5689 27.8164L34.5508 29.3477L46.0059 18.8318C42.8096 13.8395 37.5875 10.2114 31.4819 8.74108C31.3631 8.71614 31.2422 8.68933 31.1201 8.66223C30.9688 8.62869 30.8156 8.59457 30.6624 8.56403C30.5126 8.53387 30.3702 8.47861 30.2422 8.40103C27.177 9.43471 23.8106 9.43319 20.7465 8.39673C20.6218 8.47046 20.4838 8.52323 20.339 8.55256C20.0763 8.60489 19.8089 8.66897 19.5261 8.7365C13.7233 10.13 8.70552 13.4764 5.47168 18.1097L18.0442 29.6512L20.4798 30.8867ZM20.4984 20.6442H22.9995V21.4183C22.9999 21.8212 23.1746 22.2076 23.4853 22.4925C23.796 22.7774 24.2172 22.9376 24.6566 22.9379H26.3448C26.7376 22.9371 27.1173 22.8083 27.4162 22.5746C27.715 22.3408 27.9136 22.0173 27.9765 21.6618C28.0395 21.3062 27.9626 20.9417 27.7597 20.6333C27.5568 20.3248 27.241 20.0925 26.8687 19.9778L23.3408 18.8992C22.4379 18.6225 21.6659 18.0701 21.1537 17.3343C20.6415 16.5984 20.4201 15.7237 20.5264 14.8561C20.6328 13.9886 21.0606 13.1808 21.7382 12.5676C22.4158 11.9545 23.3023 11.5732 24.2497 11.4873V10.3221H26.7508V11.4873C27.7779 11.5808 28.7305 12.0209 29.4239 12.7221C30.1172 13.4234 30.5018 14.3358 30.503 15.2824V16.0566H28.0018V15.2824C28.0015 14.8795 27.8268 14.4932 27.5161 14.2082C27.2054 13.9233 26.7842 13.7631 26.3448 13.7628H24.6566C24.2638 13.7636 23.8841 13.8924 23.5852 14.1261C23.2864 14.3599 23.0878 14.6834 23.0248 15.039C22.9619 15.3945 23.0388 15.759 23.2417 16.0675C23.4446 16.3759 23.7604 16.6082 24.1327 16.7229L27.6606 17.8016C28.5634 18.0782 29.3355 18.6306 29.8477 19.3665C30.3599 20.1023 30.5813 20.9771 30.4749 21.8446C30.3686 22.7121 29.9408 23.5199 29.2632 24.1331C28.5856 24.7462 27.699 25.1275 26.7517 25.2134V26.3786H24.2501V25.2134C23.2231 25.1198 22.2706 24.6797 21.5774 23.9784C20.8841 23.2772 20.4996 22.3648 20.4984 21.4183V20.6442Z" fill="white"/>
<path d="M6.86415 40.5257L8.86694 43.5841C9.41898 43.3884 10.0137 43.3154 10.6024 43.371C11.1912 43.4267 11.7571 43.6093 12.2541 43.9042C12.751 44.199 13.1648 44.5975 13.4615 45.0671C13.7582 45.5368 13.9294 46.0642 13.9611 46.6062C14.8832 46.6499 15.7548 47.0059 16.4072 47.6051C17.0596 48.2043 17.4464 49.0042 17.4928 49.8499C18.4161 49.8934 19.2891 50.249 19.9434 50.8481C20.5976 51.4472 20.9867 52.2473 21.0355 53.094C21.6502 53.1238 22.2474 53.2923 22.774 53.5845C23.3007 53.8768 23.7406 54.2837 24.0546 54.7693C24.3686 55.2548 24.5471 55.8039 24.5742 56.3679C24.6013 56.9319 24.4761 57.4933 24.2099 58.0023L25.2474 58.9539C25.364 59.0602 25.5024 59.1444 25.6545 59.2017C25.8066 59.2589 25.9695 59.2882 26.1339 59.2877C26.2983 59.2872 26.461 59.257 26.6127 59.1989C26.7644 59.1407 26.9022 59.0557 27.0181 58.9488C27.134 58.8418 27.2257 58.715 27.2882 58.5755C27.3506 58.436 27.3825 58.2866 27.382 58.1358C27.3814 57.985 27.3485 57.8358 27.2851 57.6966C27.2217 57.5575 27.1291 57.4312 27.0124 57.3249C26.7794 57.1085 26.6496 56.816 26.6517 56.5118C26.6538 56.2077 26.7876 55.9167 27.0236 55.703C27.2596 55.4893 27.5785 55.3703 27.9102 55.3722C28.2419 55.3741 28.5591 55.4968 28.7922 55.7132C28.9069 55.8204 29.0438 55.9055 29.1949 55.9636C29.3459 56.0217 29.5081 56.0516 29.6719 56.0516C29.8356 56.0516 29.9978 56.0217 30.1488 55.9636C30.2999 55.9055 30.4368 55.8204 30.5516 55.7132C30.6686 55.6078 30.7616 55.4821 30.8253 55.3435C30.889 55.2049 30.922 55.056 30.9225 54.9056C30.923 54.7552 30.891 54.6061 30.8283 54.4671C30.7655 54.3281 30.6733 54.2019 30.557 54.0958C30.4409 53.9893 30.3488 53.8629 30.2859 53.7237C30.223 53.5846 30.1907 53.4354 30.1907 53.2848C30.1907 53.1342 30.223 52.985 30.2859 52.8459C30.3487 52.7067 30.4408 52.5803 30.5569 52.4738C30.6731 52.3672 30.8109 52.2828 30.9627 52.2251C31.1144 52.1675 31.277 52.1378 31.4413 52.1378C31.6055 52.1378 31.7681 52.1674 31.9199 52.2251C32.0716 52.2827 32.2095 52.3672 32.3256 52.4737C32.4412 52.5832 32.5793 52.6705 32.7319 52.7305C32.8846 52.7906 33.0488 52.8222 33.2149 52.8234C33.381 52.8247 33.5457 52.7956 33.6995 52.7379C33.8532 52.6802 33.9929 52.595 34.1104 52.4873C34.2279 52.3796 34.3208 52.2515 34.3838 52.1106C34.4467 51.9696 34.4785 51.8185 34.4771 51.6662C34.4758 51.5138 34.4414 51.3633 34.3759 51.2232C34.3105 51.0832 34.2153 50.9565 34.096 50.8505C33.8614 50.6354 33.7296 50.3436 33.7296 50.0393C33.7296 49.735 33.8615 49.4432 34.0961 49.228C34.3307 49.0129 34.6489 48.892 34.9807 48.892C35.3125 48.8921 35.6306 49.0129 35.8652 49.2281C35.9811 49.3343 36.1187 49.4185 36.2701 49.476C36.4214 49.5334 36.5837 49.563 36.7475 49.5629C36.9113 49.5629 37.0735 49.5332 37.2249 49.4757C37.3762 49.4181 37.5137 49.3338 37.6295 49.2275C37.7453 49.1213 37.8371 48.9951 37.8998 48.8563C37.9624 48.7175 37.9946 48.5687 37.9946 48.4184C37.9945 48.2682 37.9622 48.1194 37.8994 47.9806C37.8367 47.8419 37.7447 47.7158 37.6289 47.6096L27.0206 37.8697L23.4846 41.113C22.7849 41.7556 21.8931 42.1934 20.9221 42.3711C19.951 42.5489 18.9443 42.4585 18.0293 42.1114C17.1142 41.7643 16.332 41.1761 15.7816 40.4212C15.2311 39.6663 14.9372 38.7787 14.9369 37.8705C14.935 37.2682 15.0634 36.6714 15.3146 36.1149C15.5659 35.5583 15.935 35.053 16.4007 34.6281L18.64 32.5743L16.6796 31.5798C16.5771 31.5279 16.483 31.463 16.4002 31.387L4.19449 20.1819C2.57845 23.1783 1.73856 26.4764 1.74024 29.8193V35.7782L6.6764 40.3053C6.74857 40.3714 6.81162 40.4455 6.86415 40.5257Z" fill="white"/>
<path d="M25.5006 6.88138C27.0448 6.87993 28.5724 6.58907 29.9897 6.02666L31.4459 0H19.5557L21.0141 6.02766C22.4306 6.58944 23.9573 6.87995 25.5006 6.88138Z" fill="white"/>
<path d="M34.7741 31.7076L24.792 30.1763L21.5905 33.1125L21.5841 33.1184L18.1696 36.2502C17.9378 36.4639 17.7542 36.7175 17.6293 36.9963C17.5043 37.2752 17.4405 37.5739 17.4414 37.8753C17.4423 38.1768 17.508 38.4752 17.6347 38.7534C17.7613 39.0316 17.9465 39.2842 18.1796 39.4967C18.4127 39.7093 18.6892 39.8777 18.9932 39.9923C19.2973 40.1069 19.623 40.1654 19.9517 40.1645C20.2804 40.1637 20.6057 40.1035 20.9091 39.9873C21.2124 39.8711 21.4879 39.7013 21.7196 39.4876L26.117 35.4546C26.1224 35.4493 26.1271 35.4436 26.1326 35.4384C26.3081 35.2776 26.5317 35.1683 26.7751 35.1244C27.0185 35.0805 27.2707 35.104 27.4995 35.1919C27.5268 35.2022 27.5534 35.2141 27.58 35.2261C27.5866 35.2291 27.5933 35.2316 27.5998 35.2347C27.7147 35.2888 27.8197 35.3589 27.9112 35.4425L28.1046 35.6197C29.3384 36.6904 30.8193 37.4925 32.4374 37.9665C34.0555 38.4406 35.7692 38.5743 37.4514 38.3579C37.6144 38.3356 37.7807 38.3431 37.9406 38.3799C38.1005 38.4168 38.2509 38.4823 38.383 38.5727C38.5152 38.663 38.6266 38.7765 38.7108 38.9064C38.795 39.0364 38.8504 39.1804 38.8737 39.3301C38.897 39.4798 38.8878 39.6322 38.8467 39.7786C38.8055 39.925 38.7332 40.0625 38.6338 40.1832C38.5345 40.3039 38.4102 40.4054 38.2679 40.4818C38.1257 40.5582 37.9683 40.6081 37.805 40.6286C37.1681 40.7119 36.5256 40.7536 35.8822 40.7536C35.0798 40.7522 34.279 40.6865 33.4891 40.5572L39.3935 45.9837L39.3954 45.9856L49.2619 36.9367V29.8194C49.2744 26.7695 48.5753 23.7524 47.2116 20.9708L35.8652 31.387C35.7243 31.5162 35.5517 31.6128 35.362 31.6685C35.1722 31.7243 34.9706 31.7377 34.7741 31.7076Z" fill="white"/>
<path d="M16.4048 52.4691L15.5205 53.2801C15.4044 53.3866 15.3123 53.5131 15.2495 53.6522C15.1866 53.7914 15.1543 53.9405 15.1543 54.0911C15.1543 54.2418 15.1867 54.3909 15.2495 54.53C15.3124 54.6692 15.4045 54.7956 15.5207 54.9021C15.6368 55.0086 15.7747 55.0931 15.9264 55.1507C16.0782 55.2083 16.2408 55.238 16.405 55.238C16.5692 55.238 16.7319 55.2083 16.8836 55.1506C17.0353 55.093 17.1732 55.0085 17.2893 54.902L18.1733 54.0911C18.2906 53.9849 18.3838 53.8584 18.4476 53.719C18.5114 53.5795 18.5445 53.4299 18.545 53.2787C18.5455 53.1275 18.5134 52.9777 18.4506 52.8379C18.3877 52.6982 18.2953 52.5712 18.1788 52.4642C18.0622 52.3573 17.9237 52.2726 17.7713 52.215C17.6189 52.1573 17.4556 52.1278 17.2907 52.1283C17.1258 52.1288 16.9627 52.1591 16.8106 52.2176C16.6586 52.2761 16.5207 52.3616 16.4048 52.4691Z" fill="white"/>
<path d="M9.33058 48.7502C9.49489 48.7506 9.65765 48.7211 9.80945 48.6634C9.96124 48.6058 10.099 48.521 10.2149 48.4142L11.099 47.6033C11.3293 47.3874 11.4574 47.097 11.4555 46.7951C11.4537 46.4931 11.3221 46.204 11.0894 45.9905C10.8566 45.7769 10.5413 45.6562 10.2121 45.6545C9.88286 45.6528 9.56616 45.7702 9.33073 45.9813L8.44627 46.7924C8.21209 47.0077 8.08057 47.2993 8.08057 47.6033C8.08057 47.9073 8.21209 48.199 8.44627 48.4142C8.56211 48.521 8.69992 48.6057 8.85172 48.6634C9.00351 48.7211 9.16627 48.7506 9.33058 48.7502Z" fill="white"/>
<path d="M19.9423 55.7131L19.0581 56.524C18.942 56.6305 18.8499 56.757 18.7871 56.8961C18.7242 57.0353 18.6919 57.1845 18.6919 57.3351C18.6919 57.4857 18.7243 57.6349 18.7871 57.774C18.85 57.9132 18.9421 58.0396 19.0583 58.1461C19.1744 58.2526 19.3123 58.3371 19.4641 58.3948C19.6158 58.4524 19.7785 58.482 19.9427 58.482C20.107 58.482 20.2696 58.4523 20.4213 58.3947C20.5731 58.337 20.7109 58.2525 20.8271 58.146L21.7114 57.335C21.8287 57.2287 21.9219 57.1022 21.9857 56.9628C22.0494 56.8234 22.0825 56.6738 22.083 56.5226C22.0835 56.3714 22.0514 56.2216 21.9885 56.0818C21.9257 55.942 21.8333 55.815 21.7167 55.7081C21.6001 55.6012 21.4616 55.5165 21.3092 55.4589C21.1568 55.4012 20.9935 55.3718 20.8286 55.3723C20.6637 55.3727 20.5006 55.4031 20.3486 55.4616C20.1965 55.5201 20.0586 55.6056 19.9428 55.7131H19.9423Z" fill="white"/>
<path d="M50.5816 60.6603L50.0998 60.0034C49.5523 59.2458 49.2608 58.3569 49.2617 57.4481V40.1807L40.4921 48.2233C40.496 48.2873 40.4983 48.3515 40.4983 48.416C40.495 49.2952 40.1262 50.1402 39.467 50.7786C38.8079 51.417 37.908 51.8008 36.9509 51.8518C36.9012 52.6941 36.5167 53.4906 35.8701 54.0906C35.8665 54.094 35.8628 54.0974 35.859 54.1007C35.2048 54.6936 34.3364 55.0463 33.4179 55.0919C33.3642 55.9379 32.9734 56.7363 32.3197 57.3353C31.6661 57.9342 30.7952 58.292 29.8727 58.3405C29.8311 59.0026 29.5817 59.6395 29.1545 60.1745C28.7273 60.7095 28.1405 61.1199 27.4648 61.3561C26.7892 61.5923 26.0534 61.6443 25.3463 61.5059C24.6391 61.3674 23.9907 61.0444 23.4791 60.5757L22.5972 59.7667L22.5958 59.7678C22.0833 60.2378 21.4334 60.5615 20.7246 60.6999C20.0158 60.8384 19.2784 60.7856 18.6016 60.5479C17.9248 60.3103 17.3376 59.8979 16.9108 59.3608C16.4841 58.8236 16.2361 58.1846 16.1969 57.5209C15.2746 57.4774 14.4028 57.1215 13.7502 56.5222C13.0977 55.9229 12.7109 55.1228 12.6647 54.2769C11.7425 54.2345 10.8703 53.8798 10.2169 53.2815C9.56353 52.6832 9.17542 51.8839 9.12773 51.0382C8.40409 51.0023 7.7073 50.7749 7.12157 50.3835C6.53584 49.9921 6.08624 49.4536 5.8271 48.8329C5.56797 48.2122 5.5104 47.536 5.66135 46.8859C5.8123 46.2359 6.1653 45.6398 6.6777 45.1699L6.87138 44.9922L4.79872 41.8272L1.73997 39.0223V57.4481C1.7359 58.3475 1.45035 59.2269 0.917252 59.9819C0.912249 59.989 0.907091 59.9962 0.90162 60.0034L0.413896 60.6686C0.143736 61.0438 -0.000194354 61.4837 1.96971e-07 61.9333C0.000194748 62.383 0.144506 62.8227 0.414991 63.1978C0.639656 63.5146 0.947313 63.7747 1.30985 63.9544C1.67238 64.134 2.07824 64.2275 2.49032 64.2263H48.4989C48.9515 64.226 49.3955 64.1131 49.7837 63.8998C50.1719 63.6864 50.4898 63.3805 50.7034 63.0147C50.9171 62.6488 51.0187 62.2366 50.9972 61.822C50.9757 61.4074 50.8321 61.0059 50.5816 60.6603Z" fill="white"/>
<path d="M12.868 49.2253L11.9837 50.0363C11.8654 50.1423 11.7713 50.2689 11.7067 50.4085C11.6421 50.5482 11.6084 50.6982 11.6074 50.8499C11.6065 51.0016 11.6384 51.1519 11.7013 51.2922C11.7642 51.4325 11.8567 51.56 11.9737 51.6673C12.0907 51.7745 12.2297 51.8595 12.3827 51.9171C12.5356 51.9748 12.6996 52.004 12.865 52.0032C13.0304 52.0023 13.194 51.9714 13.3462 51.9122C13.4985 51.8529 13.6365 51.7666 13.7521 51.6581L14.6364 50.8471C14.7547 50.7411 14.8488 50.6146 14.9134 50.4749C14.978 50.3353 15.0117 50.1853 15.0127 50.0336C15.0136 49.8819 14.9817 49.7315 14.9188 49.5912C14.8559 49.4509 14.7633 49.3234 14.6464 49.2162C14.5294 49.1089 14.3904 49.024 14.2374 48.9663C14.0844 48.9087 13.9205 48.8794 13.7551 48.8803C13.5897 48.8811 13.4261 48.912 13.2738 48.9713C13.1216 49.0305 12.9836 49.1168 12.868 49.2253Z" fill="white"/>
</svg>
