<svg width="65" height="64" viewBox="0 0 65 64" fill="none" xmlns="http://www.w3.org/2000/svg">
<path d="M40.7388 26.1982C38.0431 26.1982 35.8506 28.5062 35.8506 31.3428C36.08 38.1534 45.3991 38.1507 45.6279 31.3426C45.6279 28.5062 43.4345 26.1982 40.7388 26.1982Z" fill="url(#paint0_linear_80_436)"/>
<path d="M40.1964 14.2805C31.2105 14.2805 23.9009 21.9446 23.9009 31.3657C24.7952 54.0325 55.6008 54.0258 56.492 31.3656C56.492 21.9446 49.1823 14.2805 40.1964 14.2805ZM40.1964 46.1734C32.4094 46.1734 26.0736 39.5304 26.0736 31.3657C26.8495 11.7221 53.5461 11.7278 54.3193 31.3658C54.3193 39.5304 47.9835 46.1734 40.1964 46.1734Z" fill="url(#paint1_linear_80_436)"/>
<path d="M50.8738 29.2683C44.0574 19.9908 36.3309 20.0007 29.5199 29.2685C28.6054 30.5035 28.6054 32.2288 29.5199 33.4635C31.4624 36.0831 35.4313 40.478 40.1968 40.478C44.9656 40.478 48.9324 36.0831 50.8728 33.4646C51.7894 32.2288 51.7894 30.5035 50.8738 29.2683ZM49.1573 32.0664C43.1008 40.1673 37.2852 40.1527 31.2364 32.0662C30.9256 31.647 30.9256 31.0847 31.2364 30.6659C32.6029 28.8217 36.2131 24.5319 40.1969 24.5319C44.1837 24.5319 47.7908 28.8211 49.1583 30.6659C49.4681 31.0847 49.4692 31.647 49.1573 32.0664Z" fill="url(#paint2_linear_80_436)"/>
<path d="M22.0535 45.8663C6.78173 23.8734 31.4792 -3.3094 53.1588 11.6901C53.5945 9.20945 52.5323 6.65723 49.8545 6.59904C37.9947 6.57402 31.0192 2.42883 28.5717 0.647388C27.3835 -0.215796 25.8494 -0.215796 24.6612 0.647388C22.2137 2.42882 15.2382 6.57401 3.37833 6.59904C2.47232 6.60071 1.58646 6.99671 0.948844 7.68637C0.312296 8.37603 -0.0250657 9.2737 0.00145257 10.2148C0.919664 42.7189 19.7577 48.4269 25.198 49.3944C24.0576 48.3422 22.9998 47.1685 22.0535 45.8663ZM10.8641 35.9218C10.8641 32.7764 8.91866 30.2266 6.51862 30.2266C8.91866 30.2266 10.8641 27.6767 10.8641 24.5313C10.8641 27.6767 12.8095 30.2266 15.2096 30.2266C12.8095 30.2266 10.8641 32.7764 10.8641 35.9218ZM13.0368 13.1408C15.4369 13.1408 17.3823 10.5909 17.3823 7.44554C17.3823 10.5909 19.3278 13.1408 21.7278 13.1408C19.3278 13.1408 17.3823 15.6907 17.3823 18.8361C17.3823 15.6907 15.4369 13.1408 13.0368 13.1408Z" fill="url(#paint3_linear_80_436)"/>
<path d="M55.8739 45.4144C66.5155 32.6538 59.0309 12.0483 42.9556 9.91901C31.9967 8.12902 20.9948 16.9093 19.7412 28.4726C17.4753 45.372 34.4227 58.3081 48.9705 50.9495L57.1572 62.2102C58.5449 64.1856 61.4043 64.6042 63.2479 63.0722C65.1369 61.6244 65.5261 58.6075 64.069 56.6862L55.8739 45.4144ZM51.3923 46.7662C38.428 57.2284 19.657 45.7345 21.8949 28.777C23.001 18.4383 32.8977 10.5595 42.6653 12.1767C58.8597 14.4093 64.4459 36.4339 51.3923 46.7662Z" fill="url(#paint4_linear_80_436)"/>
<defs>
<linearGradient id="paint0_linear_80_436" x1="40.7393" y1="26.1982" x2="40.7393" y2="36.4497" gradientUnits="userSpaceOnUse">
<stop stop-color="white"/>
<stop offset="1" stop-color="white"/>
</linearGradient>
<linearGradient id="paint1_linear_80_436" x1="40.1964" y1="14.2805" x2="40.1964" y2="48.3633" gradientUnits="userSpaceOnUse">
<stop stop-color="white"/>
<stop offset="1" stop-color="white"/>
</linearGradient>
<linearGradient id="paint2_linear_80_436" x1="40.1972" y1="22.3139" x2="40.1972" y2="40.478" gradientUnits="userSpaceOnUse">
<stop stop-color="white"/>
<stop offset="1" stop-color="white"/>
</linearGradient>
<linearGradient id="paint3_linear_80_436" x1="26.6267" y1="0" x2="26.6267" y2="49.3944" gradientUnits="userSpaceOnUse">
<stop stop-color="white"/>
<stop offset="1" stop-color="white"/>
</linearGradient>
<linearGradient id="paint4_linear_80_436" x1="42.2451" y1="9.68671" x2="42.2451" y2="64" gradientUnits="userSpaceOnUse">
<stop stop-color="white"/>
<stop offset="1" stop-color="white"/>
</linearGradient>
</defs>
</svg>
