<svg width="69" height="63" viewBox="0 0 69 63" fill="none" xmlns="http://www.w3.org/2000/svg">
<path d="M56.1125 39.5505C57.1399 39.8901 58.2038 40.0619 59.2846 40.0619C64.4458 40.0619 68.6453 36.2106 68.6453 31.4772C68.6453 30.2332 68.3649 29.0432 67.8119 27.9403C67.6697 27.6567 67.3848 27.455 67.0501 27.4C66.7159 27.3479 66.3721 27.4438 66.1314 27.6646L61.9741 31.4772H59.2846V29.0106L63.4418 25.198C63.6826 24.9772 63.7902 24.6628 63.7303 24.3554C63.6703 24.0485 63.4505 23.7872 63.1412 23.6568C61.9386 23.1496 60.641 22.8925 59.2845 22.8925C54.1233 22.8925 49.9238 26.7438 49.9238 31.4772C49.9238 32.4683 50.1112 33.4441 50.4814 34.3863L37.4947 46.2964C36.4673 45.9569 35.4033 45.785 34.3226 45.785C29.1613 45.785 24.9619 49.6363 24.9619 54.3697C24.9619 55.6137 25.2422 56.8037 25.7953 57.9066C25.9375 58.1903 26.2224 58.3919 26.5571 58.4469C26.8918 58.5023 27.2356 58.4036 27.4758 58.1823L31.633 54.3697H34.3226V56.8363L30.1654 60.649C29.9246 60.8697 29.817 61.1841 29.8769 61.4915C29.9368 61.7984 30.1567 62.0597 30.466 62.1901C31.6686 62.6973 32.9662 62.9544 34.3226 62.9544C39.4839 62.9544 43.6834 59.1031 43.6834 54.3697C43.6834 53.3786 43.496 52.4029 43.1257 51.4607L56.1125 39.5505ZM34.3226 61.0467C33.8107 61.0467 33.311 61.0001 32.8255 60.907L36.0981 57.9057C36.2931 57.7268 36.4028 57.4842 36.4028 57.2313V53.4159C36.4028 52.8891 35.9371 52.462 35.3627 52.462H31.2024C30.9266 52.462 30.662 52.5626 30.467 52.7415L27.1944 55.7428C27.0929 55.2975 27.0421 54.8392 27.0421 54.3697C27.0421 50.688 30.3081 47.6928 34.3227 47.6928C35.3475 47.6928 36.3561 47.8926 37.321 48.2875C37.7146 48.4482 38.1762 48.3695 38.4799 48.0905L52.4377 35.2899C52.7424 35.0104 52.8277 34.588 52.6525 34.227C52.2219 33.3421 52.004 32.4171 52.004 31.4772C52.004 27.7955 55.27 24.8003 59.2846 24.8003C59.7965 24.8003 60.2962 24.8468 60.7817 24.94L57.5091 27.9413C57.3141 28.1201 57.2044 28.3628 57.2044 28.6157V32.4311C57.2044 32.9578 57.6701 33.3849 58.2445 33.3849H62.4048C62.6806 33.3849 62.9451 33.2843 63.1402 33.1055L66.4127 30.1042C66.5143 30.5495 66.5651 31.0078 66.5651 31.4772C66.5651 35.159 63.2991 38.1542 59.2845 38.1542C58.2597 38.1542 57.2511 37.9544 56.2862 37.5594C55.8921 37.3983 55.4315 37.477 55.1273 37.7565L41.1695 50.5571C40.8648 50.8365 40.7795 51.259 40.9547 51.6199C41.3853 52.5049 41.6032 53.4298 41.6032 54.3697C41.6032 58.0515 38.3372 61.0467 34.3226 61.0467Z" fill="white"/>
<path d="M28.1918 30.95C28.368 31.2733 28.7281 31.4773 29.1222 31.4773H30.7717L40.8678 40.7364C41.0709 40.9227 41.337 41.0158 41.6031 41.0158C41.8693 41.0158 42.1354 40.9227 42.3385 40.7364C42.7448 40.3638 42.7448 39.7601 42.3385 39.3876L31.9377 29.849C31.7427 29.6702 31.4781 29.5696 31.2023 29.5696H29.7651L28.3076 26.8962L29.3274 25.9609L32.2424 27.2976V28.6157C32.2424 28.8686 32.3521 29.1113 32.5471 29.2901L42.9479 38.8287C43.3542 39.2013 44.0124 39.2013 44.4187 38.8287C44.8249 38.4561 44.8249 37.8524 44.4187 37.4799L34.3226 28.2208V26.708C34.3226 26.3466 34.1001 26.0164 33.7477 25.8548L29.5874 23.947C29.1862 23.7645 28.7037 23.8362 28.3868 24.1259L26.3066 26.0336C25.9903 26.3238 25.9115 26.7672 26.1116 27.1346L28.1918 30.95Z" fill="white"/>
<path d="M64.9772 49.8566L54.6282 44.0189C54.2168 43.7861 53.6876 43.8447 53.3479 44.1568L48.1475 48.9261C47.8067 49.2381 47.7447 49.7239 47.9972 50.1002L54.3641 59.5936C55.7632 61.6666 58.2781 62.9544 60.927 62.9544C62.9889 62.9544 64.9274 62.2186 66.3844 60.8819C67.842 59.5456 68.6444 57.7679 68.6444 55.8769C68.6444 54.6739 68.3031 53.4825 67.6617 52.4392C67.0187 51.3731 66.0894 50.4793 64.9772 49.8566ZM64.9137 59.5331C63.8492 60.5093 62.4333 61.0467 60.9271 61.0467C58.9932 61.0467 57.1557 60.105 56.134 58.5918L50.1992 49.7425L54.2381 46.0384L63.8899 51.483C64.6979 51.9353 65.3728 52.5855 65.8456 53.3693C66.3159 54.1341 66.5642 55.0013 66.5642 55.8769C66.5642 57.2583 65.9781 58.5568 64.9137 59.5331Z" fill="white"/>
<path d="M54.8194 48.9261C54.4131 48.5535 53.7549 48.5535 53.3487 48.9261C52.9424 49.2986 52.9424 49.9023 53.3487 50.2749L60.1092 56.4749C60.3123 56.6612 60.5784 56.7544 60.8445 56.7544C61.1107 56.7544 61.3768 56.6612 61.5799 56.4749C61.9862 56.1023 61.9862 55.4987 61.5799 55.1261L54.8194 48.9261Z" fill="white"/>
<path d="M56.9963 21.1946C56.3411 19.2488 55.4258 17.3983 54.2505 15.6527C53.8969 15.1281 53.9905 14.4699 54.4585 14.0312C55.1242 13.4207 55.4882 12.6195 55.4882 11.7515C55.4882 10.893 55.1242 10.0822 54.4585 9.47177L52.0768 7.28746C50.7455 6.06649 48.4365 6.06649 47.0948 7.28746C46.6268 7.72619 45.9091 7.80252 45.3371 7.47824C42.9033 6.10469 40.2718 5.10309 37.4949 4.49267C36.85 4.34958 36.4028 3.83451 36.4028 3.22403C36.4028 1.44987 34.8219 0 32.8873 0H29.5175C27.5829 0 26.002 1.44988 26.002 3.22403C26.002 3.8345 25.5548 4.34957 24.9099 4.49267C22.1329 5.10309 19.5015 6.10469 17.0677 7.47824C16.4956 7.79297 15.7781 7.72619 15.2996 7.28746C13.9787 6.06649 11.6593 6.06649 10.328 7.28746L7.94622 9.47177C7.28056 10.0822 6.91655 10.893 6.91655 11.7515C6.91655 12.6195 7.28056 13.4207 7.94622 14.0407C8.41427 14.4699 8.50784 15.1281 8.15425 15.6527C6.65653 17.8848 5.56446 20.298 4.8988 22.8448C4.74276 23.4362 4.18114 23.8463 3.51547 23.8463C1.58093 23.8463 0 25.2962 0 27.0704V30.1609C0 31.935 1.58094 33.3849 3.51547 33.3849C4.18113 33.3849 4.74275 33.795 4.8988 34.3864C5.56446 36.9332 6.65653 39.3465 8.15425 41.5785C8.50784 42.1031 8.41427 42.7613 7.94622 43.2C7.28056 43.8105 6.91655 44.6118 6.91655 45.4797C6.91655 46.3382 7.28056 47.149 7.94622 47.7595L10.328 49.9438C11.6593 51.1647 13.9683 51.1647 15.31 49.9438C15.7781 49.505 16.4956 49.4383 17.0677 49.753C18.971 50.8309 20.9888 51.6702 23.1106 52.2712C24.1714 47.4829 28.7894 43.8773 34.3226 43.8773C35.1859 43.8773 36.0492 43.9726 36.8917 44.1444L39.2734 41.9696L37.7237 40.5483C35.7579 41.464 33.5426 41.9696 31.2024 41.9696C23.173 41.9696 16.6413 35.9793 16.6413 28.6156C16.6413 21.2519 23.173 15.2616 31.2024 15.2616C39.2318 15.2616 45.7635 21.2519 45.7635 28.6156C45.7635 30.7618 45.2122 32.7935 44.2138 34.5963L45.7635 36.0175L48.1349 33.8332C47.9477 33.0605 47.8437 32.2689 47.8437 31.4772C47.8437 26.4027 51.7752 22.1676 56.9963 21.1946Z" fill="white"/>
</svg>
