<svg width="51" height="63" viewBox="0 0 51 63" fill="none" xmlns="http://www.w3.org/2000/svg">
<path d="M48.5062 45.4583H43.9966C42.6463 45.4583 41.5518 46.4621 41.5518 47.7004V60.4794C41.5518 61.7177 42.6463 62.7216 43.9966 62.7216H48.5062C49.8564 62.7216 50.951 61.7177 50.951 60.4794V47.7004C50.951 46.4621 49.8564 45.4583 48.5062 45.4583Z" fill="white"/>
<path d="M34.9007 46.0042H22.4359C21.6239 46.0072 20.8307 46.2291 20.155 46.6422C19.4794 47.0553 18.951 47.6414 18.6357 48.3276L6.53823 41.3573C5.57234 40.8088 4.40845 40.6347 3.3026 40.8733C2.19675 41.1119 1.23954 41.7435 0.641524 42.6294C0.0435122 43.5152 -0.146309 44.5826 0.113821 45.5967C0.37395 46.6109 1.06272 47.4888 2.02861 48.0372L21.6632 58.9575C22.6922 59.5363 23.8762 59.842 25.0834 59.8404C25.0834 59.8404 40.2843 59.7242 40.3603 59.7474V47.7003C40.354 47.6385 40.354 47.5763 40.3603 47.5144C38.7005 46.6133 36.827 46.0951 34.9007 46.0042Z" fill="white"/>
<path d="M18.9899 6.08717C18.7857 5.35449 18.7512 4.5907 18.8885 3.84503H14.835C15.0376 4.58085 15.0376 5.35135 14.835 6.08717H18.9899Z" fill="white"/>
<path d="M17.6982 37.9999V39.9051C17.7016 40.4434 17.9362 40.9587 18.3512 41.3393C18.7662 41.7199 19.3281 41.9351 19.915 41.9381H30.9991C31.586 41.9351 32.1479 41.7199 32.5629 41.3393C32.9779 40.9587 33.2126 40.4434 33.2159 39.9051V37.9999C33.2125 36.9717 32.7657 35.9866 31.973 35.2595C31.1802 34.5325 30.106 34.1228 28.9849 34.1197H21.9165C20.7966 34.1228 19.7237 34.5329 18.933 35.2603C18.1423 35.9876 17.6982 36.9728 17.6982 37.9999Z" fill="white"/>
<path d="M21.9674 33.0044H28.4532V8.4571C29.2899 7.84123 29.8975 7.00233 30.1921 6.0562C30.4867 5.11008 30.4538 4.10342 30.0979 3.17519C29.7419 2.24697 29.0806 1.44298 28.2051 0.874223C27.3296 0.305466 26.2832 0 25.2103 0C24.1374 0 23.091 0.305466 22.2155 0.874223C21.34 1.44298 20.6786 2.24697 20.3227 3.17519C19.9668 4.10342 19.9338 5.11008 20.2285 6.0562C20.5231 7.00233 21.1307 7.84123 21.9674 8.4571V33.0044ZM25.223 6.28467C24.8467 6.28467 24.4858 6.14758 24.2197 5.90357C23.9537 5.65956 23.8042 5.32861 23.8042 4.98353C23.8042 4.63845 23.9537 4.3075 24.2197 4.06349C24.4858 3.81948 24.8467 3.68239 25.223 3.68239C25.5634 3.7244 25.8757 3.87825 26.1018 4.1154C26.3279 4.35254 26.4525 4.65688 26.4525 4.97191C26.4525 5.28694 26.3279 5.59128 26.1018 5.82843C25.8757 6.06557 25.5634 6.21943 25.223 6.26143V6.28467Z" fill="white"/>
<path d="M35.5978 6.08717C35.3951 5.35135 35.3951 4.58085 35.5978 3.84503H31.5315C31.6793 4.58949 31.649 5.35448 31.4429 6.08717H35.5978Z" fill="white"/>
<path d="M40.4623 8.45707C41.4702 8.45707 42.4368 8.08988 43.1495 7.43628C43.8622 6.78268 44.2626 5.89621 44.2626 4.97188C44.2626 4.04755 43.8622 3.16108 43.1495 2.50748C42.4368 1.85388 41.4702 1.48669 40.4623 1.48669C39.4545 1.48669 38.4879 1.85388 37.7752 2.50748C37.0625 3.16108 36.6621 4.04755 36.6621 4.97188C36.6621 5.89621 37.0625 6.78268 37.7752 7.43628C38.4879 8.08988 39.4545 8.45707 40.4623 8.45707Z" fill="white"/>
<path d="M9.95893 8.45707C10.9668 8.45707 11.9334 8.08988 12.6461 7.43628C13.3588 6.78268 13.7592 5.89621 13.7592 4.97188C13.7592 4.04755 13.3588 3.16108 12.6461 2.50748C11.9334 1.85388 10.9668 1.48669 9.95893 1.48669C8.95104 1.48669 7.98444 1.85388 7.27175 2.50748C6.55907 3.16108 6.15869 4.04755 6.15869 4.97188C6.15869 5.89621 6.55907 6.78268 7.27175 7.43628C7.98444 8.08988 8.95104 8.45707 9.95893 8.45707Z" fill="white"/>
<path d="M40.4619 10.7341L42.4254 19.7375C43.3474 19.8994 44.242 20.1728 45.0855 20.5507L42.5521 9.09607C41.8798 9.39062 41.1436 9.54156 40.3986 9.53753C39.6617 9.5417 38.9336 9.39067 38.2704 9.09607L35.8003 20.5507C36.6407 20.1659 37.5363 19.8921 38.4605 19.7375L40.4619 10.7341Z" fill="white"/>
<path d="M9.95847 10.7341L11.8966 19.7375C12.7991 19.8492 13.6811 20.0719 14.5188 20.3997L12.0993 9.17737C11.4301 9.46789 10.6989 9.61858 9.95847 9.61858C9.21807 9.61858 8.48689 9.46789 7.81767 9.17737L5.28418 20.9108C6.13639 20.465 7.0534 20.1325 8.00768 19.9234L9.95847 10.7341Z" fill="white"/>
<path d="M49.6967 29.1939C49.6934 26.9487 48.7194 24.7964 46.9883 23.2088C45.2572 21.6212 42.9103 20.728 40.4622 20.7249C28.2381 21.1199 28.2507 37.2679 40.4622 37.6629C42.9103 37.6599 45.2572 36.7666 46.9883 35.179C48.7194 33.5914 49.6934 31.4391 49.6967 29.1939ZM39.1447 30.2859L43.515 25.639L45.3645 27.1144L39.1827 33.6782L35.4965 29.9258L37.308 28.4156L39.1447 30.2859Z" fill="white"/>
<path d="M10.465 37.663C12.9132 37.6599 15.2601 36.7666 16.9912 35.1791C18.7223 33.5915 19.6963 31.4391 19.6996 29.194C19.2689 17.9833 1.66116 17.9833 1.23047 29.194C1.23382 31.4391 2.20782 33.5915 3.93892 35.1791C5.67001 36.7666 8.01691 37.6599 10.465 37.663ZM6.0061 26.7079L7.72888 25.1047L10.465 27.614L13.1886 25.1047L14.9113 26.7079L12.1878 29.2172L14.9113 31.7149L13.1886 33.3065L10.465 30.7739L7.72888 33.2833L6.0061 31.6917L8.72961 29.194L6.0061 26.7079Z" fill="white"/>
</svg>
