<svg width="228" height="40" viewBox="0 0 228 40" fill="none" xmlns="http://www.w3.org/2000/svg">
<path d="M34.641 21.4918C34.641 30.8058 27.2821 35.4629 18.5354 38.1639C18.0774 38.3014 17.5799 38.2949 17.1267 38.1453C8.35898 35.4629 1 30.8058 1 21.4918V8.45208C1 7.95804 1.22152 7.48422 1.61583 7.13488C2.01013 6.78553 2.54493 6.58927 3.10256 6.58927C7.30769 6.58927 12.5641 4.3539 16.2226 1.52242C16.668 1.18525 17.2346 1 17.8205 1C18.4064 1 18.973 1.18525 19.4185 1.52242C23.098 4.37253 28.3333 6.58927 32.5385 6.58927C33.0961 6.58927 33.6309 6.78553 34.0252 7.13488C34.4195 7.48422 34.641 7.95804 34.641 8.45208V21.4918Z" stroke="#F3B800" stroke-width="2" stroke-linecap="round" stroke-linejoin="round"/>
<path d="M47.5359 27.8721V14.7812H52.7007C53.6936 14.7812 54.5395 14.9708 55.2384 15.3501C55.9372 15.7251 56.4699 16.2471 56.8364 16.9161C57.2071 17.5809 57.3925 18.3479 57.3925 19.2172C57.3925 20.0866 57.205 20.8536 56.83 21.5184C56.455 22.1831 55.9117 22.7009 55.2 23.0716C54.4926 23.4424 53.6361 23.6278 52.6304 23.6278H49.3385V21.4097H52.183C52.7156 21.4097 53.1545 21.3181 53.4997 21.1349C53.8491 20.9474 54.1091 20.6895 54.2795 20.3614C54.4543 20.029 54.5416 19.6476 54.5416 19.2172C54.5416 18.7826 54.4543 18.4033 54.2795 18.0795C54.1091 17.7513 53.8491 17.4978 53.4997 17.3188C53.1503 17.1356 52.7071 17.0439 52.1702 17.0439H50.3037V27.8721H47.5359ZM63.4553 28.0638C62.4454 28.0638 61.5761 27.8593 60.8474 27.4502C60.1229 27.0368 59.5647 26.453 59.1727 25.6988C58.7806 24.9403 58.5846 24.0432 58.5846 23.0077C58.5846 21.9978 58.7806 21.1114 59.1727 20.3486C59.5647 19.5858 60.1166 18.9914 60.8282 18.5653C61.5441 18.1391 62.3836 17.926 63.3467 17.926C63.9944 17.926 64.5974 18.0305 65.1556 18.2393C65.7181 18.4438 66.2082 18.7528 66.6258 19.1661C67.0477 19.5795 67.3758 20.0993 67.6102 20.7258C67.8445 21.3479 67.9617 22.0766 67.9617 22.9118V23.6597H59.6712V21.9722H65.3985C65.3985 21.5802 65.3133 21.2329 65.1428 20.9303C64.9724 20.6278 64.7359 20.3912 64.4333 20.2208C64.135 20.0461 63.7877 19.9587 63.3914 19.9587C62.9781 19.9587 62.6116 20.0546 62.292 20.2464C61.9766 20.4339 61.7295 20.6874 61.5505 21.007C61.3715 21.3224 61.2799 21.6739 61.2756 22.0617V23.6661C61.2756 24.1519 61.3651 24.5716 61.5441 24.9253C61.7273 25.279 61.9852 25.5518 62.3175 25.7435C62.6499 25.9353 63.0441 26.0312 63.5001 26.0312C63.8026 26.0312 64.0796 25.9885 64.331 25.9033C64.5825 25.8181 64.7977 25.6903 64.9766 25.5198C65.1556 25.3493 65.292 25.1405 65.3857 24.8934L67.9042 25.0596C67.7764 25.6647 67.5143 26.1931 67.118 26.6448C66.7259 27.0922 66.2188 27.4417 65.5967 27.6931C64.9788 27.9403 64.265 28.0638 63.4553 28.0638ZM72.5384 28.0574C71.912 28.0574 71.3538 27.9488 70.8637 27.7314C70.3737 27.5099 69.9859 27.1839 69.7004 26.7535C69.4191 26.3188 69.2785 25.7776 69.2785 25.1299C69.2785 24.5844 69.3786 24.1263 69.5789 23.7556C69.7792 23.3849 70.0519 23.0866 70.3971 22.8607C70.7423 22.6349 71.1343 22.4644 71.5732 22.3493C72.0164 22.2343 72.4809 22.1533 72.9667 22.1064C73.5377 22.0468 73.9979 21.9914 74.3474 21.9403C74.6968 21.8849 74.9504 21.8039 75.108 21.6974C75.2657 21.5908 75.3445 21.4331 75.3445 21.2243V21.186C75.3445 20.7812 75.2167 20.468 74.961 20.2464C74.7096 20.0248 74.3516 19.914 73.8871 19.914C73.3971 19.914 73.0072 20.0226 72.7174 20.24C72.4276 20.453 72.2359 20.7215 72.1421 21.0454L69.6237 20.8408C69.7515 20.2442 70.0029 19.7286 70.3779 19.2939C70.7529 18.855 71.2366 18.5184 71.8289 18.284C72.4255 18.0454 73.1158 17.926 73.8999 17.926C74.4454 17.926 74.9674 17.99 75.466 18.1178C75.9688 18.2456 76.4141 18.4438 76.8019 18.7123C77.194 18.9807 77.5029 19.3259 77.7288 19.7478C77.9546 20.1654 78.0675 20.6661 78.0675 21.2499V27.8721H75.4852V26.5106H75.4085C75.2508 26.8174 75.0398 27.088 74.7756 27.3224C74.5114 27.5525 74.194 27.7336 73.8232 27.8657C73.4525 27.9935 73.0242 28.0574 72.5384 28.0574ZM73.3183 26.1782C73.7188 26.1782 74.0725 26.0993 74.3793 25.9417C74.6862 25.7797 74.9269 25.5624 75.1016 25.2897C75.2764 25.017 75.3637 24.708 75.3637 24.3628V23.3209C75.2785 23.3763 75.1613 23.4275 75.0121 23.4743C74.8673 23.517 74.7032 23.5574 74.52 23.5958C74.3367 23.6299 74.1535 23.6618 73.9702 23.6917C73.787 23.7172 73.6208 23.7407 73.4717 23.762C73.1521 23.8089 72.8729 23.8834 72.6343 23.9857C72.3957 24.088 72.2103 24.2265 72.0782 24.4012C71.9461 24.5716 71.88 24.7847 71.88 25.0404C71.88 25.4111 72.0143 25.6945 72.2827 25.8905C72.5555 26.0823 72.9006 26.1782 73.3183 26.1782ZM84.6162 28.0638C83.6105 28.0638 82.7455 27.8508 82.021 27.4246C81.3009 26.9942 80.7469 26.3976 80.3591 25.6349C79.9756 24.8721 79.7838 23.9942 79.7838 23.0013C79.7838 21.9956 79.9777 21.1135 80.3655 20.355C80.7575 19.5922 81.3136 18.9978 82.0338 18.5716C82.754 18.1412 83.6105 17.926 84.6034 17.926C85.4599 17.926 86.2099 18.0816 86.8534 18.3927C87.4969 18.7037 88.0061 19.1405 88.3811 19.703C88.7561 20.2655 88.9628 20.926 89.0011 21.6846H86.4315C86.3591 21.1945 86.1673 20.8003 85.8563 20.502C85.5494 20.1995 85.1467 20.0482 84.6482 20.0482C84.2263 20.0482 83.8577 20.1633 83.5423 20.3934C83.2313 20.6192 82.9884 20.9495 82.8136 21.3841C82.6389 21.8188 82.5516 22.3451 82.5516 22.963C82.5516 23.5894 82.6368 24.1221 82.8072 24.561C82.982 24.9999 83.227 25.3344 83.5423 25.5645C83.8577 25.7947 84.2263 25.9097 84.6482 25.9097C84.9592 25.9097 85.2384 25.8458 85.4855 25.718C85.7369 25.5901 85.9436 25.4047 86.1055 25.1618C86.2717 24.9147 86.3804 24.6185 86.4315 24.2733H89.0011C88.9585 25.0233 88.754 25.6839 88.3875 26.2549C88.0253 26.8216 87.5246 27.2648 86.8854 27.5844C86.2462 27.904 85.4898 28.0638 84.6162 28.0638ZM95.219 28.0638C94.2091 28.0638 93.3397 27.8593 92.611 27.4502C91.8866 27.0368 91.3284 26.453 90.9363 25.6988C90.5443 24.9403 90.3483 24.0432 90.3483 23.0077C90.3483 21.9978 90.5443 21.1114 90.9363 20.3486C91.3284 19.5858 91.8802 18.9914 92.5919 18.5653C93.3078 18.1391 94.1473 17.926 95.1103 17.926C95.7581 17.926 96.361 18.0305 96.9193 18.2393C97.4818 18.4438 97.9718 18.7528 98.3895 19.1661C98.8113 19.5795 99.1395 20.0993 99.3738 20.7258C99.6082 21.3479 99.7254 22.0766 99.7254 22.9118V23.6597H91.4349V21.9722H97.1622C97.1622 21.5802 97.077 21.2329 96.9065 20.9303C96.736 20.6278 96.4995 20.3912 96.197 20.2208C95.8987 20.0461 95.5514 19.9587 95.1551 19.9587C94.7417 19.9587 94.3753 20.0546 94.0556 20.2464C93.7403 20.4339 93.4931 20.6874 93.3142 21.007C93.1352 21.3224 93.0436 21.6739 93.0393 22.0617V23.6661C93.0393 24.1519 93.1288 24.5716 93.3078 24.9253C93.491 25.279 93.7488 25.5518 94.0812 25.7435C94.4136 25.9353 94.8078 26.0312 95.2637 26.0312C95.5663 26.0312 95.8433 25.9885 96.0947 25.9033C96.3461 25.8181 96.5613 25.6903 96.7403 25.5198C96.9193 25.3493 97.0556 25.1405 97.1494 24.8934L99.6679 25.0596C99.54 25.6647 99.2779 26.1931 98.8816 26.6448C98.4896 27.0922 97.9825 27.4417 97.3603 27.6931C96.7424 27.9403 96.0287 28.0638 95.219 28.0638ZM106.782 18.0539V20.0993H100.723V18.0539H106.782ZM102.11 27.8721V17.3444C102.11 16.6327 102.248 16.0425 102.525 15.5738C102.806 15.105 103.19 14.7535 103.676 14.5191C104.161 14.2847 104.713 14.1675 105.331 14.1675C105.749 14.1675 106.13 14.1995 106.475 14.2634C106.825 14.3273 107.085 14.3849 107.255 14.436L106.769 16.4814C106.663 16.4474 106.531 16.4154 106.373 16.3856C106.22 16.3557 106.062 16.3408 105.9 16.3408C105.5 16.3408 105.22 16.4346 105.063 16.6221C104.905 16.8053 104.826 17.0631 104.826 17.3955V27.8721H102.11ZM114.742 23.6917V18.0539H117.465V27.8721H114.851V26.0887H114.748C114.527 26.664 114.158 27.1263 113.642 27.4758C113.131 27.8252 112.507 27.9999 111.77 27.9999C111.113 27.9999 110.536 27.8508 110.037 27.5525C109.539 27.2542 109.149 26.8302 108.868 26.2805C108.591 25.7307 108.45 25.0724 108.446 24.3053V18.0539H111.169V23.8195C111.173 24.3991 111.329 24.8572 111.635 25.1938C111.942 25.5305 112.353 25.6988 112.869 25.6988C113.197 25.6988 113.504 25.6242 113.789 25.4751C114.075 25.3216 114.305 25.0958 114.48 24.7975C114.659 24.4992 114.746 24.1306 114.742 23.6917ZM122.366 14.7812V27.8721H119.643V14.7812H122.366ZM131.532 14.7812V27.8721H128.764V14.7812H131.532ZM136.481 22.1959V27.8721H133.758V18.0539H136.353V19.7861H136.468C136.686 19.2151 137.05 18.7634 137.562 18.431C138.073 18.0944 138.693 17.926 139.422 17.926C140.103 17.926 140.698 18.0752 141.205 18.3735C141.712 18.6718 142.106 19.0979 142.388 19.6519C142.669 20.2016 142.809 20.8579 142.809 21.6206V27.8721H140.086V22.1064C140.091 21.5056 139.937 21.0368 139.626 20.7002C139.315 20.3593 138.887 20.1888 138.341 20.1888C137.975 20.1888 137.651 20.2677 137.37 20.4253C137.093 20.583 136.875 20.8131 136.718 21.1157C136.564 21.414 136.486 21.7741 136.481 22.1959ZM153.757 18.0539L150.325 27.8721H147.257L143.824 18.0539H146.701L148.74 25.0787H148.842L150.875 18.0539H153.757ZM159.309 28.0638C158.299 28.0638 157.43 27.8593 156.701 27.4502C155.976 27.0368 155.418 26.453 155.026 25.6988C154.634 24.9403 154.438 24.0432 154.438 23.0077C154.438 21.9978 154.634 21.1114 155.026 20.3486C155.418 19.5858 155.97 18.9914 156.682 18.5653C157.398 18.1391 158.237 17.926 159.2 17.926C159.848 17.926 160.451 18.0305 161.009 18.2393C161.572 18.4438 162.062 18.7528 162.479 19.1661C162.901 19.5795 163.229 20.0993 163.464 20.7258C163.698 21.3479 163.815 22.0766 163.815 22.9118V23.6597H155.525V21.9722H161.252C161.252 21.5802 161.167 21.2329 160.996 20.9303C160.826 20.6278 160.589 20.3912 160.287 20.2208C159.989 20.0461 159.641 19.9587 159.245 19.9587C158.832 19.9587 158.465 20.0546 158.145 20.2464C157.83 20.4339 157.583 20.6874 157.404 21.007C157.225 21.3224 157.133 21.6739 157.129 22.0617V23.6661C157.129 24.1519 157.219 24.5716 157.398 24.9253C157.581 25.279 157.839 25.5518 158.171 25.7435C158.503 25.9353 158.898 26.0312 159.354 26.0312C159.656 26.0312 159.933 25.9885 160.185 25.9033C160.436 25.8181 160.651 25.6903 160.83 25.5198C161.009 25.3493 161.145 25.1405 161.239 24.8934L163.758 25.0596C163.63 25.6647 163.368 26.1931 162.971 26.6448C162.579 27.0922 162.072 27.4417 161.45 27.6931C160.832 27.9403 160.119 28.0638 159.309 28.0638ZM173.761 20.8536L171.268 21.007C171.226 20.7939 171.134 20.6022 170.994 20.4317C170.853 20.257 170.668 20.1185 170.437 20.0162C170.212 19.9097 169.941 19.8564 169.626 19.8564C169.204 19.8564 168.848 19.9459 168.558 20.1249C168.268 20.2996 168.123 20.534 168.123 20.828C168.123 21.0624 168.217 21.2606 168.405 21.4225C168.592 21.5844 168.914 21.7144 169.37 21.8124L171.147 22.1704C172.101 22.3664 172.813 22.6817 173.282 23.1164C173.751 23.551 173.985 24.1221 173.985 24.8295C173.985 25.4729 173.795 26.0376 173.416 26.5233C173.041 27.0091 172.525 27.3884 171.869 27.6611C171.217 27.9296 170.465 28.0638 169.613 28.0638C168.313 28.0638 167.278 27.7932 166.506 27.252C165.739 26.7066 165.29 25.9651 165.158 25.0276L167.836 24.887C167.917 25.2833 168.113 25.5858 168.424 25.7947C168.735 25.9992 169.133 26.1015 169.619 26.1015C170.096 26.1015 170.48 26.0099 170.77 25.8266C171.064 25.6391 171.213 25.3983 171.217 25.1043C171.213 24.8572 171.109 24.6547 170.904 24.4971C170.699 24.3351 170.384 24.2116 169.958 24.1263L168.258 23.7876C167.299 23.5958 166.585 23.2634 166.116 22.7904C165.652 22.3174 165.42 21.7144 165.42 20.9814C165.42 20.3508 165.59 19.8074 165.931 19.3515C166.276 18.8955 166.76 18.5439 167.382 18.2968C168.008 18.0496 168.741 17.926 169.581 17.926C170.821 17.926 171.797 18.1881 172.508 18.7123C173.224 19.2364 173.642 19.9502 173.761 20.8536ZM180.922 18.0539V20.0993H175.009V18.0539H180.922ZM176.352 15.7016H179.075V24.855C179.075 25.1064 179.113 25.3025 179.19 25.4431C179.266 25.5795 179.373 25.6753 179.509 25.7307C179.65 25.7861 179.812 25.8138 179.995 25.8138C180.123 25.8138 180.251 25.8032 180.379 25.7819C180.506 25.7563 180.604 25.7371 180.673 25.7243L181.101 27.7506C180.965 27.7932 180.773 27.8422 180.526 27.8976C180.278 27.9573 179.978 27.9935 179.624 28.0063C178.968 28.0319 178.393 27.9445 177.899 27.7442C177.408 27.5439 177.027 27.2329 176.754 26.811C176.482 26.3891 176.347 25.8564 176.352 25.213V15.7016ZM182.696 27.8721V18.0539H185.291V19.7861H185.406C185.611 19.2108 185.951 18.757 186.429 18.4246C186.906 18.0922 187.477 17.926 188.142 17.926C188.815 17.926 189.388 18.0944 189.861 18.431C190.334 18.7634 190.65 19.2151 190.807 19.7861H190.91C191.11 19.2236 191.472 18.7741 191.996 18.4374C192.525 18.0965 193.149 17.926 193.869 17.926C194.785 17.926 195.529 18.218 196.1 18.8018C196.675 19.3813 196.963 20.2037 196.963 21.2691V27.8721H194.246V21.806C194.246 21.2606 194.101 20.8515 193.812 20.5787C193.522 20.306 193.16 20.1697 192.725 20.1697C192.231 20.1697 191.845 20.3273 191.568 20.6427C191.291 20.9537 191.152 21.365 191.152 21.8763V27.8721H188.513V21.7485C188.513 21.267 188.374 20.8834 188.097 20.5979C187.824 20.3124 187.464 20.1697 187.017 20.1697C186.714 20.1697 186.441 20.2464 186.199 20.3998C185.96 20.5489 185.77 20.7599 185.63 21.0326C185.489 21.301 185.419 21.6164 185.419 21.9786V27.8721H182.696ZM203.588 28.0638C202.578 28.0638 201.709 27.8593 200.98 27.4502C200.256 27.0368 199.698 26.453 199.305 25.6988C198.913 24.9403 198.717 24.0432 198.717 23.0077C198.717 21.9978 198.913 21.1114 199.305 20.3486C199.698 19.5858 200.249 18.9914 200.961 18.5653C201.677 18.1391 202.516 17.926 203.479 17.926C204.127 17.926 204.73 18.0305 205.288 18.2393C205.851 18.4438 206.341 18.7528 206.759 19.1661C207.18 19.5795 207.509 20.0993 207.743 20.7258C207.977 21.3479 208.095 22.0766 208.095 22.9118V23.6597H199.804V21.9722H205.531C205.531 21.5802 205.446 21.2329 205.276 20.9303C205.105 20.6278 204.869 20.3912 204.566 20.2208C204.268 20.0461 203.921 19.9587 203.524 19.9587C203.111 19.9587 202.744 20.0546 202.425 20.2464C202.109 20.4339 201.862 20.6874 201.683 21.007C201.504 21.3224 201.413 21.6739 201.408 22.0617V23.6661C201.408 24.1519 201.498 24.5716 201.677 24.9253C201.86 25.279 202.118 25.5518 202.45 25.7435C202.783 25.9353 203.177 26.0312 203.633 26.0312C203.935 26.0312 204.212 25.9885 204.464 25.9033C204.715 25.8181 204.93 25.6903 205.109 25.5198C205.288 25.3493 205.425 25.1405 205.519 24.8934L208.037 25.0596C207.909 25.6647 207.647 26.1931 207.251 26.6448C206.859 27.0922 206.352 27.4417 205.729 27.6931C205.112 27.9403 204.398 28.0638 203.588 28.0638ZM212.595 22.1959V27.8721H209.872V18.0539H212.467V19.7861H212.582C212.799 19.2151 213.163 18.7634 213.675 18.431C214.186 18.0944 214.806 17.926 215.535 17.926C216.217 17.926 216.811 18.0752 217.318 18.3735C217.825 18.6718 218.22 19.0979 218.501 19.6519C218.782 20.2016 218.923 20.8579 218.923 21.6206V27.8721H216.2V22.1064C216.204 21.5056 216.051 21.0368 215.739 20.7002C215.428 20.3593 215 20.1888 214.455 20.1888C214.088 20.1888 213.764 20.2677 213.483 20.4253C213.206 20.583 212.989 20.8131 212.831 21.1157C212.678 21.414 212.599 21.7741 212.595 22.1959ZM226.291 18.0539V20.0993H220.378V18.0539H226.291ZM221.721 15.7016H224.444V24.855C224.444 25.1064 224.482 25.3025 224.559 25.4431C224.636 25.5795 224.742 25.6753 224.878 25.7307C225.019 25.7861 225.181 25.8138 225.364 25.8138C225.492 25.8138 225.62 25.8032 225.748 25.7819C225.876 25.7563 225.974 25.7371 226.042 25.7243L226.47 27.7506C226.334 27.7932 226.142 27.8422 225.895 27.8976C225.648 27.9573 225.347 27.9935 224.994 28.0063C224.337 28.0319 223.762 27.9445 223.268 27.7442C222.778 27.5439 222.396 27.2329 222.123 26.811C221.851 26.3891 221.717 25.8564 221.721 25.213V15.7016Z" fill="white"/>
</svg>
