<svg width="148" height="88" viewBox="0 0 148 88" fill="none" xmlns="http://www.w3.org/2000/svg">
<path d="M53.8184 24.0749C54.2702 41.5006 74.0604 60.7638 88.3597 39.4675C98.4107 25.4376 93.5347 6.70614 73.7132 5.82861C68.4404 5.83992 63.3871 7.76593 59.6588 11.1853C55.9304 14.6048 53.8305 19.2392 53.8184 24.0749Z" fill="#F3B800"/>
<path d="M41.4402 55.9903C37.392 60.6791 34.6355 66.1936 33.4042 72.0667C32.7395 74.0474 35.4651 75.6898 36.6771 76.9108C40.3323 80.2923 44.6837 82.9742 49.4785 84.8004C54.2734 86.6267 59.4162 87.561 64.6081 87.5492H82.8184C88.01 87.5582 93.1518 86.6226 97.9463 84.7964C102.741 82.9703 107.093 80.2899 110.75 76.9106C111.894 75.6509 114.682 74.0537 114.022 72.0667C112.807 66.3731 110.178 61.0126 106.341 56.4005C102.503 51.7884 97.5586 48.0486 91.8912 45.4709C91.2583 45.1935 90.5449 45.1102 89.8564 45.2332C89.1679 45.3563 88.5408 45.6791 88.0678 46.1542C86.348 48.1384 84.1615 49.7405 81.6716 50.8407C79.1818 51.941 76.453 52.511 73.6892 52.5081C70.9254 52.5051 68.198 51.9294 65.7109 50.8239C63.2239 49.7184 61.0414 48.1118 59.3266 46.1239C57.7629 44.5202 55.3746 45.283 53.7209 46.3624C48.9471 48.7606 44.7659 52.0386 41.4402 55.9903Z" fill="#F3B800"/>
<path d="M2.32987 54.0586C4.82577 56.3618 7.79467 58.1884 11.065 59.4329C14.3353 60.6775 17.8421 61.3152 21.3828 61.3093H30.3582C33.9549 54.0017 39.6854 47.7487 46.9161 43.242C51.7126 40.7012 50.8982 41.0314 47.3693 37.4471C45.2041 35.4818 42.7101 33.8465 39.9818 32.6034C39.5545 32.4141 39.0722 32.3553 38.6058 32.4355C38.1393 32.5157 37.7131 32.7309 37.3896 33.0494C36.2161 34.4059 34.7236 35.5017 33.0235 36.255C31.3234 37.0083 29.4597 37.3995 27.5716 37.3995C25.6834 37.3995 23.8197 37.0082 22.1197 36.2548C20.4196 35.5015 18.9271 34.4056 17.7537 33.049C17.4301 32.7306 17.0039 32.5156 16.5375 32.4354C16.071 32.3552 15.5888 32.4141 15.1615 32.6034C11.2925 34.3622 7.91757 36.9152 5.29887 40.0641C2.68016 43.213 0.888133 46.8732 0.0619611 50.7603C-0.362001 52.1049 1.49877 53.2316 2.32987 54.0586Z" fill="#F3B800"/>
<path d="M129.576 33.0492C128.406 34.4056 126.916 35.5015 125.219 36.2549C123.521 37.0083 121.66 37.3996 119.774 37.3996C117.888 37.3996 116.027 37.0082 114.329 36.2547C112.632 35.5012 111.142 34.4052 109.972 33.0489C109.642 32.73 109.21 32.5152 108.739 32.4352C108.267 32.3551 107.78 32.414 107.348 32.6033C103.073 34.5587 99.4138 37.4844 96.7192 41.1023C105.692 45.6504 112.819 52.7392 117.036 61.3093H125.979C129.908 61.2812 133.786 60.4877 137.355 58.9815C140.925 57.4754 144.105 55.2908 146.684 52.5726C146.941 52.3337 147.131 52.0414 147.238 51.7207C147.345 51.3999 147.366 51.0602 147.3 50.7303C146.467 46.8451 144.669 43.1883 142.045 40.0444C139.42 36.9005 136.04 34.3541 132.168 32.6034C131.74 32.4154 131.258 32.3572 130.792 32.4374C130.326 32.5175 129.9 32.7319 129.576 33.0492Z" fill="#F3B800"/>
<path d="M28.4466 33.0195C37.8759 33.0195 44.6803 21.7271 44.6803 14.1197C44.56 10.2763 42.7843 6.63311 39.7418 3.98763C36.6994 1.34216 32.6379 -0.0900965 28.4466 0.0043955C24.2587 -0.0891448 20.2012 1.34432 17.164 3.99041C14.1269 6.63651 12.3579 10.2792 12.2451 14.1197C12.2451 21.7271 19.0499 33.0195 28.4466 33.0195Z" fill="#F3B800"/>
<path d="M118.947 0.00438522C114.764 -0.0832024 110.714 1.35314 107.683 3.99881C104.653 6.64448 102.889 10.2838 102.778 14.1197C102.778 21.7271 109.583 33.0195 118.947 33.0195C128.344 33.0195 135.117 21.7271 135.117 14.1197C135.011 10.2822 133.249 6.63993 130.217 3.99321C127.185 1.34649 123.132 -0.0881893 118.947 0.00438522Z" fill="#F3B800"/>
</svg>
